<svg width="690" height="683" viewBox="0 0 690 683" fill="none" xmlns="http://www.w3.org/2000/svg">
<path d="M674.512 353.573C675.422 289.738 656.438 224.486 615.081 175.792C573.723 127.098 508.778 97.0616 445.235 104.49C381.692 111.919 322.999 160.065 310.116 222.595C304.243 251.082 307.501 280.514 308.448 309.586C308.448 309.624 308.448 309.662 308.448 309.7C308.733 318.527 303.977 326.844 296.153 330.965C292.459 332.912 288.518 334.424 284.558 335.483C270.141 339.32 254.909 338.715 240.264 341.494C188.277 351.305 151.751 404.894 151.561 457.69C151.372 510.467 181.741 559.954 222.512 593.582C304.508 661.198 429.055 668.532 521.907 616.738C614.74 564.945 673.016 459.694 674.512 353.573Z" fill="url(#paint0_linear_84_5795)"/>
<path d="M242.67 82.0527C165.069 76.3441 87.3929 117.401 42.6438 180.933C5.30229 233.956 -10.233 303.424 7.76519 365.69C25.7634 427.956 79.3979 480.279 143.547 490.467C181.135 496.441 221.678 488.899 256.026 505.231C277.018 515.211 293.027 532.961 310.949 547.762C328.853 562.563 351.341 575.114 374.284 571.334C400.447 567.024 420.037 538.745 414.808 512.792C414.808 512.792 403.82 447.048 402.986 424.893C400.41 355.69 430.779 285.712 413.236 218.72C393.551 143.581 320.27 87.7803 242.67 82.0527Z" fill="url(#paint1_linear_84_5795)"/>
<path d="M689.536 132.786C686.96 83.4689 651.399 38.8771 606.612 17.9138C560.063 -3.86227 505.689 -3.08725 456.147 9.74778C430.59 16.3827 406.737 26.8927 384.325 40.1246C342.702 64.6605 305.985 98.5344 272.3 134.318C229.465 179.836 180.188 219.494 146.389 272.138C107.987 331.909 83.4333 402.19 85.2331 473.548C87.0329 544.906 117.137 616.983 172.382 661.934C189.641 675.959 212.092 687.679 233.197 681.139C257.201 673.672 268.833 645.242 268.057 619.894C267.299 594.545 257.561 570.387 253.09 545.416C242.878 488.292 262.43 426.763 303.579 386.462C342.361 348.506 396.071 330.68 448.588 317.486C501.124 304.292 555.44 294.198 602.633 267.564C649.808 240.948 689.612 193.313 689.707 138.684C689.707 136.718 689.65 134.752 689.536 132.786Z" fill="url(#paint2_radial_84_5795)"/>
<defs>
<linearGradient id="paint0_linear_84_5795" x1="569.886" y1="622.139" x2="376.486" y2="326.283" gradientUnits="userSpaceOnUse">
<stop stop-color="#574CBF"/>
<stop offset="0.4155" stop-color="#4B3ECA"/>
<stop offset="1" stop-color="#1A0C9E"/>
</linearGradient>
<linearGradient id="paint1_linear_84_5795" x1="103.719" y1="137.235" x2="398.939" y2="565.759" gradientUnits="userSpaceOnUse">
<stop stop-color="#574CBF"/>
<stop offset="0.5065" stop-color="#1A0C9E"/>
<stop offset="1" stop-color="#574CBF"/>
</linearGradient>
<radialGradient id="paint2_radial_84_5795" cx="0" cy="0" r="1" gradientUnits="userSpaceOnUse" gradientTransform="translate(221.366 103.011) scale(577.915 576.616)">
<stop stop-color="#574CBF"/>
<stop offset="1" stop-color="#2718BC"/>
</radialGradient>
</defs>
</svg>
